<?xml version="1.0" encoding="UTF-8" standalone="no"?>
<!-- Created with Inkscape (http://www.inkscape.org/) -->

<svg
   xmlns:dc="http://purl.org/dc/elements/1.1/"
   xmlns:cc="http://creativecommons.org/ns#"
   xmlns:rdf="http://www.w3.org/1999/02/22-rdf-syntax-ns#"
   xmlns:svg="http://www.w3.org/2000/svg"
   xmlns="http://www.w3.org/2000/svg"
   version="1.1"
   width="264.875"
   height="221.5"
   id="svg2996">
  <defs
     id="defs2998" />
  <metadata
     id="metadata3001">
    <rdf:RDF>
      <cc:Work
         rdf:about="">
        <dc:format>image/svg+xml</dc:format>
        <dc:type
           rdf:resource="http://purl.org/dc/dcmitype/StillImage" />
        <dc:title></dc:title>
      </cc:Work>
    </rdf:RDF>
  </metadata>
  <g
     transform="translate(-289.20053,-381.34656)"
     id="layer1">
    <path
       d="m 346.60678,381.34656 c -13.77875,0 -28.55875,5.3875 -36.46875,17.125 -6.37875,9.69625 -5.875,23.20875 -5.875,34.4375 l -15.0625,0 0,29.09375 15.0625,0 0,97.21875 37.5,0 0,-97.21875 22.96875,0 0,-29.09375 -22.96875,0 0,-2.8125 c 0,-10.97125 0.009,-18.875 12,-18.875 5.87,0 8.6675,-0.015 14.28125,0.75 l 0,-28.8125 c -7.91,-1.53125 -18.37625,-1.8125 -21.4375,-1.8125 z m 35.71875,0.28125 0,36.21875 37.53125,0 0,-36.21875 z m 123.78125,45.40625 c -16.58625,0 -26.7975,7.39875 -33.6875,21.6875 l -0.53125,0 0,-19.125 -35.1875,0 0,173.25 37.5,0 0,-57.9375 0.5,0 c 5.35875,11.4825 17.11625,16.84375 29.875,16.84375 37.7625,0 49.5,-35.1975 49.5,-67.09375 0,-15.82 -1.5525,-31.3775 -9.71875,-45.15625 -8.67375,-14.8 -20.89875,-22.46875 -38.25,-22.46875 z m -123.78125,2.5625 0,129.625 37.53125,0 0,-129.625 z m 112.53125,23.96875 c 18.88125,0 19.90625,26.79375 19.90625,40.0625 0,13.27 -0.765,41.59375 -20.15625,41.59375 -6.63625,0 -13.2725,-4.07375 -16.84375,-9.6875 -4.33875,-7.145 -3.5625,-18.11625 -3.5625,-26.28125 l 0,-12.75 c 0,-7.655 -0.015,-15.57875 3.8125,-22.46875 3.3175,-6.37875 9.44375,-10.46875 16.84375,-10.46875 z"
       id="path4193"
       style="fill:#ffffff;fill-opacity:1;fill-rule:nonzero;stroke:none" />
  </g>
</svg>
