<?xml version="1.0" encoding="UTF-8" standalone="no"?>
<!-- Created with Inkscape (http://www.inkscape.org/) -->
<svg id="svg2" xmlns:rdf="http://www.w3.org/1999/02/22-rdf-syntax-ns#" xmlns="http://www.w3.org/2000/svg" height="549.22" width="549.21" version="1.1" xmlns:cc="http://creativecommons.org/ns#" xmlns:dc="http://purl.org/dc/elements/1.1/">
 <metadata id="metadata7">
  <rdf:RDF>
   <cc:Work rdf:about="">
    <dc:format>image/svg+xml</dc:format>
    <dc:type rdf:resource="http://purl.org/dc/dcmitype/StillImage"/>
    <dc:title/>
   </cc:Work>
  </rdf:RDF>
 </metadata>
 <g id="layer1" transform="translate(300.32 -457.75)">
  <path id="path4189" d="m-300.32 1007h460.63v-460.63h-460.63v460.63z" fill-rule="evenodd"/>
  <path id="path4191" d="m-211.74 918.38h460.63v-460.63h-460.63v460.63z" fill-rule="evenodd" fill="#e2007a"/>
  <path id="path4193" d="m185.22 216.91c-13.78 0-28.56 5.38-36.47 17.12-6.38 9.7-5.87 23.21-5.87 34.44h-15.07v29.09h15.07v97.22h37.5v-97.22h22.96v-29.09h-22.96v-2.81c0-10.98 0-18.88 12-18.88 5.86 0 8.66-0.01 14.28 0.75v-28.81c-7.91-1.53-18.38-1.81-21.44-1.81zm35.72 0.28v36.22h37.53v-36.22h-37.53zm123.78 45.4c-16.59 0-26.8 7.4-33.69 21.69h-0.53v-19.12h-35.19v173.25h37.5v-57.94h0.5c5.36 11.48 17.12 16.84 29.88 16.84 37.76 0 49.5-35.19 49.5-67.09 0-15.82-1.55-31.38-9.72-45.16-8.67-14.8-20.9-22.47-38.25-22.47zm-123.78 2.57v129.62h37.53v-129.62h-37.53zm112.53 23.96c18.88 0 19.91 26.8 19.91 40.07s-0.77 41.59-20.16 41.59c-6.64 0-13.27-4.07-16.84-9.69-4.34-7.14-3.57-18.11-3.57-26.28v-12.75c0-7.65-0.01-15.58 3.81-22.47 3.32-6.37 9.45-10.47 16.85-10.47zm-244.88 141.44l-20.313 1.56 0.281 40.38s24.448 1.23 30.219 1.59c5.759 0.37 11.919 0.52 13.749 7.47 1.99 7.55-6.9 13.03-9.91 13.03 9.1 0 7.06-0.03 13.88-0.03 5.56-1.02 11.86-7.69 11.06-17.65-1.05-13.15-11.15-16.29-21.9-16.29l-17.098 0.04 0.032-30.1zm-48.188 38.16c-3.691 4.47-7.363 11.31-5.25 18.94 6.318 21.32 40.255 30.71 54.532 31.28l-1.688-24.94s-23.161 3.03-34.875-9.25c-4.971-5.2-3.991-10.67-0.25-15.41-4.382-0.2-9.522-0.49-12.469-0.62z" transform="translate(-300.32 457.75)" fill="#fff"/>
 </g>
</svg>
